<svg data-v-fde0c5aa="" xmlns="http://www.w3.org/2000/svg" viewBox="0 0 300 300" class="iconLeft"><!----><defs data-v-fde0c5aa=""><linearGradient data-v-fde0c5aa="" gradientTransform="rotate(25)" id="811e1f4d-3f1d-41b1-a2ed-91a32ba48adc" x1="0%" y1="0%" x2="100%" y2="0%"><stop data-v-fde0c5aa="" offset="0%" stop-color="#843F47" stop-opacity="1"></stop><stop data-v-fde0c5aa="" offset="100%" stop-color="#D0978B" stop-opacity="1"></stop></linearGradient></defs><rect data-v-fde0c5aa="" fill="url(#811e1f4d-3f1d-41b1-a2ed-91a32ba48adc)" x="0" y="0" width="300px" height="300px" class="logo-background-square"></rect><defs data-v-fde0c5aa=""><!----></defs><g data-v-fde0c5aa="" id="c52ee973-e56b-4d4b-a98d-9126351eb8fb" fill="#ffffff" transform="matrix(6.849042563970406,0,0,6.849042563970406,91.99298691822811,98.7006662317271)"><path d="M0.87 12.29L0.87 2.69L2.74 2.69L4.44 8.99Q4.55 9.42 4.64 10.16Q4.73 10.91 4.76 11.14L4.76 11.14L4.82 11.14Q4.83 10.91 4.92 10.16Q5.01 9.41 5.12 8.99L5.12 8.99L6.83 2.69L8.69 2.69L8.69 12.29L7.46 12.29L7.46 5.32Q7.46 5.11 7.50 4.56Q7.55 4.02 7.56 3.84L7.56 3.84L7.50 3.84Q7.46 4.02 7.35 4.56Q7.24 5.11 7.18 5.32L7.18 5.32L5.26 12.29L4.16 12.29L2.24 5.32Q2.16 4.97 2.07 4.50Q1.99 4.03 1.95 3.84L1.95 3.84L1.89 3.84Q1.90 4.03 1.93 4.50Q1.96 4.97 1.97 5.32L1.97 5.32L1.97 12.29L0.87 12.29ZM13.37 12.46Q11.94 12.46 11.04 11.76Q10.14 11.06 10.14 9.58L10.14 9.58L10.15 9.30L11.42 9.30L11.41 9.59Q11.41 10.44 11.93 10.88Q12.46 11.33 13.31 11.33L13.31 11.33Q14.28 11.33 14.80 10.91Q15.33 10.50 15.33 9.73L15.33 9.73Q15.33 9.21 15.04 8.88Q14.76 8.55 14.33 8.36Q13.90 8.16 13.16 7.92L13.16 7.92Q12.25 7.62 11.69 7.34Q11.13 7.06 10.73 6.52Q10.33 5.98 10.33 5.10L10.33 5.10Q10.33 3.84 11.19 3.18Q12.04 2.52 13.38 2.52L13.38 2.52Q14.73 2.52 15.56 3.19Q16.39 3.85 16.39 5.22L16.39 5.22L16.39 5.39L15.12 5.39L15.12 5.18Q15.12 4.47 14.64 4.06Q14.15 3.65 13.41 3.65L13.41 3.65Q12.61 3.65 12.12 4.00Q11.63 4.34 11.63 5.00L11.63 5.00Q11.63 5.49 11.91 5.80Q12.19 6.12 12.61 6.31Q13.03 6.50 13.76 6.73L13.76 6.73Q14.69 7.04 15.25 7.31Q15.82 7.59 16.22 8.13Q16.62 8.67 16.62 9.52L16.62 9.52Q16.62 11.06 15.74 11.76Q14.87 12.46 13.37 12.46L13.37 12.46ZM21.36 12.46Q19.87 12.46 19.03 11.61Q18.20 10.77 18.20 9.17L18.20 9.17L18.20 2.69L19.43 2.69L19.43 9.24Q19.43 10.25 19.94 10.79Q20.45 11.33 21.36 11.33L21.36 11.33Q22.27 11.33 22.79 10.79Q23.30 10.25 23.30 9.24L23.30 9.24L23.30 2.69L24.53 2.69L24.53 9.17Q24.53 10.77 23.70 11.61Q22.86 12.46 21.36 12.46L21.36 12.46Z"></path></g><defs data-v-fde0c5aa=""><!----></defs><g data-v-fde0c5aa="" id="927ec456-669a-4719-a709-c02e18378fd9" stroke="none" fill="#ffffff" transform="matrix(1.1051148396119583,0,0,1.1051148396119583,7.262077384277632,94.54975873086399)"><path clip-rule="evenodd" d="M70.232 22.923c-.104-3.721-1.637-12.875-4.28-15.612C63.169 4.429 56.667 4.014 50 3.974v-.001h-.077v.001c-6.667.041-13.168.456-15.952 3.337-2.643 2.737-4.176 11.892-4.28 15.612 0 4.314-.067 45.924-.067 58.497 0 4.322.107 8.727 2.22 10.866 2.075 2.102 10.457 4.093 18.113 4.093 7.518 0 16.048-1.991 18.123-4.093 2.112-2.14 2.22-6.544 2.22-10.866-.001-12.572-.068-54.182-.068-58.497zm-20.275 2.259c11.637 0 16.282 3.422 16.282 3.422l-4.524 15.37s-1.121-.225-2.812-.598c-1.599-.354-5.361-1.015-8.946-1.084-3.584.07-7.415.731-9.014 1.084-1.69.374-2.811.598-2.811.598l-4.525-15.37s4.665-3.422 16.35-3.422zM32.035 39.398l3.896 11.203V58.3l-3.896-1.492v-17.41zm0 23.375l3.896 1.137v13.23l-3.896 2.672V62.773zm17.922 25.991h-.068c-8.118 0-15.051-2.189-15.051-2.189l3.535-4.448s5.484 1.403 11.583 1.403c5.831 0 11.516-1.403 11.516-1.403l3.535 4.448c.001-.001-7.084 2.189-15.05 2.189zm17.854-8.952l-3.896-2.672V63.91l3.896-1.137v17.039zm0-23.004L63.915 58.3v-7.698l3.896-11.203v17.409z"></path></g><!----></svg>